<mxfile host="app.diagrams.net" agent="Mozilla/5.0 (Windows NT 10.0; Win64; x64) AppleWebKit/537.36 (KHTML, like Gecko) Chrome/130.0.0.0 Safari/537.36" version="24.8.2">
  <diagram name="Page-1" id="c4acf3e9-155e-7222-9cf6-157b1a14988f">
    <mxGraphModel dx="970" dy="1484" grid="1" gridSize="10" guides="1" tooltips="1" connect="1" arrows="1" fold="1" page="1" pageScale="1" pageWidth="850" pageHeight="1100" background="none" math="0" shadow="0">
      <root>
        <mxCell id="0" />
        <mxCell id="1" parent="0" />
        <mxCell id="17acba5748e5396b-1" value="Use Case Netflix&amp;nbsp;" style="shape=umlFrame;whiteSpace=wrap;html=1;rounded=0;shadow=0;comic=0;labelBackgroundColor=none;strokeWidth=1;fontFamily=Verdana;fontSize=10;align=center;" parent="1" vertex="1">
          <mxGeometry x="60" y="-1064" width="1430" height="894" as="geometry" />
        </mxCell>
        <mxCell id="17acba5748e5396b-30" value="Movie" style="swimlane;html=1;fontStyle=0;childLayout=stackLayout;horizontal=1;startSize=26;fillColor=none;horizontalStack=0;resizeParent=1;resizeLast=0;collapsible=1;marginBottom=0;swimlaneFillColor=#ffffff;rounded=0;shadow=0;comic=0;labelBackgroundColor=none;strokeWidth=1;fontFamily=Verdana;fontSize=10;align=center;" parent="1" vertex="1">
          <mxGeometry x="70" y="-680" width="160" height="80" as="geometry" />
        </mxCell>
        <mxCell id="MXeGfviL51i1jRM-pdPd-1" value="- Duration: date" style="text;html=1;strokeColor=none;fillColor=none;align=left;verticalAlign=top;spacingLeft=4;spacingRight=4;whiteSpace=wrap;overflow=hidden;rotatable=0;points=[[0,0.5],[1,0.5]];portConstraint=eastwest;fontFamily=Verdana;fontSize=10;fontColor=default;fontStyle=0;labelBackgroundColor=none;" parent="17acba5748e5396b-30" vertex="1">
          <mxGeometry y="26" width="160" height="26" as="geometry" />
        </mxCell>
        <mxCell id="u5OW4T7a8DiHMdrfiU4O-11" value="Episodes" style="swimlane;html=1;fontStyle=0;childLayout=stackLayout;horizontal=1;startSize=26;fillColor=none;horizontalStack=0;resizeParent=1;resizeLast=0;collapsible=1;marginBottom=0;swimlaneFillColor=#ffffff;rounded=0;shadow=0;comic=0;labelBackgroundColor=none;strokeWidth=1;fontFamily=Verdana;fontSize=10;align=center;" parent="1" vertex="1">
          <mxGeometry x="480" y="-530" width="160" height="120" as="geometry">
            <mxRectangle x="310" y="-756" width="80" height="30" as="alternateBounds" />
          </mxGeometry>
        </mxCell>
        <mxCell id="u5OW4T7a8DiHMdrfiU4O-12" value="- Ep_ID: int&lt;div&gt;&lt;br&gt;&lt;/div&gt;" style="text;html=1;strokeColor=none;fillColor=none;align=left;verticalAlign=top;spacingLeft=4;spacingRight=4;whiteSpace=wrap;overflow=hidden;rotatable=0;points=[[0,0.5],[1,0.5]];portConstraint=eastwest;" parent="u5OW4T7a8DiHMdrfiU4O-11" vertex="1">
          <mxGeometry y="26" width="160" height="26" as="geometry" />
        </mxCell>
        <mxCell id="u5OW4T7a8DiHMdrfiU4O-13" value="&lt;div&gt;- title: string&lt;/div&gt;&lt;div&gt;&lt;br&gt;&lt;/div&gt;" style="text;html=1;strokeColor=none;fillColor=none;align=left;verticalAlign=top;spacingLeft=4;spacingRight=4;whiteSpace=wrap;overflow=hidden;rotatable=0;points=[[0,0.5],[1,0.5]];portConstraint=eastwest;" parent="u5OW4T7a8DiHMdrfiU4O-11" vertex="1">
          <mxGeometry y="52" width="160" height="26" as="geometry" />
        </mxCell>
        <mxCell id="u5OW4T7a8DiHMdrfiU4O-37" value="&lt;div&gt;- episode_number: int&lt;/div&gt;&lt;div&gt;&lt;br&gt;&lt;/div&gt;" style="text;html=1;strokeColor=none;fillColor=none;align=left;verticalAlign=top;spacingLeft=4;spacingRight=4;whiteSpace=wrap;overflow=hidden;rotatable=0;points=[[0,0.5],[1,0.5]];portConstraint=eastwest;" parent="u5OW4T7a8DiHMdrfiU4O-11" vertex="1">
          <mxGeometry y="78" width="160" height="26" as="geometry" />
        </mxCell>
        <mxCell id="u5OW4T7a8DiHMdrfiU4O-19" value="Series" style="swimlane;html=1;fontStyle=0;childLayout=stackLayout;horizontal=1;startSize=26;fillColor=none;horizontalStack=0;resizeParent=1;resizeLast=0;collapsible=1;marginBottom=0;swimlaneFillColor=#ffffff;rounded=0;shadow=0;comic=0;labelBackgroundColor=none;strokeWidth=1;fontFamily=Verdana;fontSize=10;align=center;strokeColor=default;verticalAlign=middle;fontColor=default;" parent="1" vertex="1">
          <mxGeometry x="260" y="-680" width="160" height="80" as="geometry" />
        </mxCell>
        <mxCell id="pWf0yoMoPzwOqvPtpyno-2" value="- Season: int" style="text;html=1;strokeColor=none;fillColor=none;align=left;verticalAlign=top;spacingLeft=4;spacingRight=4;whiteSpace=wrap;overflow=hidden;rotatable=0;points=[[0,0.5],[1,0.5]];portConstraint=eastwest;fontFamily=Verdana;fontSize=10;fontColor=default;fontStyle=0;labelBackgroundColor=none;" parent="u5OW4T7a8DiHMdrfiU4O-19" vertex="1">
          <mxGeometry y="26" width="160" height="26" as="geometry" />
        </mxCell>
        <mxCell id="u5OW4T7a8DiHMdrfiU4O-46" value="&lt;i&gt;Media&lt;/i&gt;" style="swimlane;html=1;fontStyle=0;childLayout=stackLayout;horizontal=1;startSize=26;fillColor=none;horizontalStack=0;resizeParent=1;resizeLast=0;collapsible=1;marginBottom=0;swimlaneFillColor=#ffffff;rounded=0;shadow=0;comic=0;labelBackgroundColor=none;strokeWidth=1;fontFamily=Verdana;fontSize=10;align=center;strokeColor=default;verticalAlign=middle;fontColor=default;" parent="1" vertex="1">
          <mxGeometry x="190" y="-970" width="160" height="160" as="geometry" />
        </mxCell>
        <mxCell id="u5OW4T7a8DiHMdrfiU4O-36" value="- Movie_ID" style="text;html=1;strokeColor=none;fillColor=none;align=left;verticalAlign=top;spacingLeft=4;spacingRight=4;whiteSpace=wrap;overflow=hidden;rotatable=0;points=[[0,0.5],[1,0.5]];portConstraint=eastwest;" parent="u5OW4T7a8DiHMdrfiU4O-46" vertex="1">
          <mxGeometry y="26" width="160" height="26" as="geometry" />
        </mxCell>
        <mxCell id="u5OW4T7a8DiHMdrfiU4O-67" value="- Title: string" style="text;html=1;strokeColor=none;fillColor=none;align=left;verticalAlign=top;spacingLeft=4;spacingRight=4;whiteSpace=wrap;overflow=hidden;rotatable=0;points=[[0,0.5],[1,0.5]];portConstraint=eastwest;fontFamily=Verdana;fontSize=10;fontColor=default;fontStyle=0;labelBackgroundColor=none;" parent="u5OW4T7a8DiHMdrfiU4O-46" vertex="1">
          <mxGeometry y="52" width="160" height="26" as="geometry" />
        </mxCell>
        <mxCell id="u5OW4T7a8DiHMdrfiU4O-68" value="&lt;div&gt;&lt;span style=&quot;background-color: initial;&quot;&gt;- Rating: float&lt;/span&gt;&lt;/div&gt;&lt;div&gt;&lt;span style=&quot;background-color: initial;&quot;&gt;&lt;br&gt;&lt;/span&gt;&lt;/div&gt;" style="text;html=1;strokeColor=none;fillColor=none;align=left;verticalAlign=top;spacingLeft=4;spacingRight=4;whiteSpace=wrap;overflow=hidden;rotatable=0;points=[[0,0.5],[1,0.5]];portConstraint=eastwest;" parent="u5OW4T7a8DiHMdrfiU4O-46" vertex="1">
          <mxGeometry y="78" width="160" height="26" as="geometry" />
        </mxCell>
        <mxCell id="u5OW4T7a8DiHMdrfiU4O-86" value="- release_year: string" style="text;html=1;strokeColor=none;fillColor=none;align=left;verticalAlign=top;spacingLeft=4;spacingRight=4;whiteSpace=wrap;overflow=hidden;rotatable=0;points=[[0,0.5],[1,0.5]];portConstraint=eastwest;" parent="u5OW4T7a8DiHMdrfiU4O-46" vertex="1">
          <mxGeometry y="104" width="160" height="30" as="geometry" />
        </mxCell>
        <mxCell id="MXeGfviL51i1jRM-pdPd-2" value="- Genre: string" style="text;html=1;strokeColor=none;fillColor=none;align=left;verticalAlign=top;spacingLeft=4;spacingRight=4;whiteSpace=wrap;overflow=hidden;rotatable=0;points=[[0,0.5],[1,0.5]];portConstraint=eastwest;" parent="u5OW4T7a8DiHMdrfiU4O-46" vertex="1">
          <mxGeometry y="134" width="160" height="26" as="geometry" />
        </mxCell>
        <mxCell id="u5OW4T7a8DiHMdrfiU4O-60" value="" style="endArrow=block;dashed=1;endFill=0;endSize=12;html=1;rounded=0;exitX=0.25;exitY=0;exitDx=0;exitDy=0;entryX=0.25;entryY=1;entryDx=0;entryDy=0;" parent="1" source="17acba5748e5396b-30" target="u5OW4T7a8DiHMdrfiU4O-46" edge="1">
          <mxGeometry width="160" relative="1" as="geometry">
            <mxPoint x="290" y="-760" as="sourcePoint" />
            <mxPoint x="450" y="-760" as="targetPoint" />
          </mxGeometry>
        </mxCell>
        <mxCell id="pWf0yoMoPzwOqvPtpyno-44" value="1..*" style="edgeLabel;html=1;align=center;verticalAlign=middle;resizable=0;points=[];" parent="u5OW4T7a8DiHMdrfiU4O-60" vertex="1" connectable="0">
          <mxGeometry x="-0.7671" y="-1" relative="1" as="geometry">
            <mxPoint x="-25" y="-2" as="offset" />
          </mxGeometry>
        </mxCell>
        <mxCell id="u5OW4T7a8DiHMdrfiU4O-62" value="" style="endArrow=block;dashed=1;endFill=0;endSize=12;html=1;rounded=0;entryX=0.75;entryY=1;entryDx=0;entryDy=0;exitX=0.5;exitY=0;exitDx=0;exitDy=0;" parent="1" source="u5OW4T7a8DiHMdrfiU4O-19" target="u5OW4T7a8DiHMdrfiU4O-46" edge="1">
          <mxGeometry width="160" relative="1" as="geometry">
            <mxPoint x="290" y="-760" as="sourcePoint" />
            <mxPoint x="450" y="-760" as="targetPoint" />
          </mxGeometry>
        </mxCell>
        <mxCell id="pWf0yoMoPzwOqvPtpyno-45" value="1..*" style="edgeLabel;html=1;align=center;verticalAlign=middle;resizable=0;points=[];" parent="u5OW4T7a8DiHMdrfiU4O-62" vertex="1" connectable="0">
          <mxGeometry x="-0.7556" y="1" relative="1" as="geometry">
            <mxPoint x="-15" y="2" as="offset" />
          </mxGeometry>
        </mxCell>
        <mxCell id="u5OW4T7a8DiHMdrfiU4O-77" value="" style="endArrow=diamondThin;endFill=1;endSize=24;html=1;rounded=0;exitX=0.5;exitY=0;exitDx=0;exitDy=0;targetPerimeterSpacing=0;entryX=1;entryY=0.5;entryDx=0;entryDy=0;" parent="1" source="u5OW4T7a8DiHMdrfiU4O-11" target="u5OW4T7a8DiHMdrfiU4O-19" edge="1">
          <mxGeometry width="160" relative="1" as="geometry">
            <mxPoint x="290" y="-520" as="sourcePoint" />
            <mxPoint x="340" y="-600" as="targetPoint" />
          </mxGeometry>
        </mxCell>
        <mxCell id="u5OW4T7a8DiHMdrfiU4O-81" value="1..*" style="edgeLabel;html=1;align=center;verticalAlign=middle;resizable=0;points=[];" parent="u5OW4T7a8DiHMdrfiU4O-77" vertex="1" connectable="0">
          <mxGeometry x="-0.7689" relative="1" as="geometry">
            <mxPoint x="26" y="1" as="offset" />
          </mxGeometry>
        </mxCell>
        <mxCell id="OyGu7xgzBfIXpcRJ4Xiw-1" value="Watchlist" style="swimlane;html=1;fontStyle=0;childLayout=stackLayout;horizontal=1;startSize=26;fillColor=none;horizontalStack=0;resizeParent=1;resizeLast=0;collapsible=1;marginBottom=0;swimlaneFillColor=#ffffff;rounded=0;shadow=0;comic=0;labelBackgroundColor=none;strokeWidth=1;fontFamily=Verdana;fontSize=10;align=center;" parent="1" vertex="1">
          <mxGeometry x="680" y="-970" width="160" height="110" as="geometry" />
        </mxCell>
        <mxCell id="OyGu7xgzBfIXpcRJ4Xiw-2" value="- Watch_ID: int" style="text;html=1;strokeColor=none;fillColor=none;align=left;verticalAlign=top;spacingLeft=4;spacingRight=4;whiteSpace=wrap;overflow=hidden;rotatable=0;points=[[0,0.5],[1,0.5]];portConstraint=eastwest;" parent="OyGu7xgzBfIXpcRJ4Xiw-1" vertex="1">
          <mxGeometry y="26" width="160" height="26" as="geometry" />
        </mxCell>
        <mxCell id="OyGu7xgzBfIXpcRJ4Xiw-7" value="Director" style="swimlane;html=1;fontStyle=0;childLayout=stackLayout;horizontal=1;startSize=26;fillColor=none;horizontalStack=0;resizeParent=1;resizeLast=0;collapsible=1;marginBottom=0;swimlaneFillColor=#ffffff;rounded=0;shadow=0;comic=0;labelBackgroundColor=none;strokeWidth=1;fontFamily=Verdana;fontSize=10;align=center;" parent="1" vertex="1">
          <mxGeometry x="390" y="-340" width="160" height="60" as="geometry" />
        </mxCell>
        <mxCell id="OyGu7xgzBfIXpcRJ4Xiw-9" value="- director_id: int" style="text;html=1;strokeColor=none;fillColor=none;align=left;verticalAlign=top;spacingLeft=4;spacingRight=4;whiteSpace=wrap;overflow=hidden;rotatable=0;points=[[0,0.5],[1,0.5]];portConstraint=eastwest;" parent="OyGu7xgzBfIXpcRJ4Xiw-7" vertex="1">
          <mxGeometry y="26" width="160" height="26" as="geometry" />
        </mxCell>
        <mxCell id="OyGu7xgzBfIXpcRJ4Xiw-11" value="Actors" style="swimlane;html=1;fontStyle=0;childLayout=stackLayout;horizontal=1;startSize=26;fillColor=none;horizontalStack=0;resizeParent=1;resizeLast=0;collapsible=1;marginBottom=0;swimlaneFillColor=#ffffff;rounded=0;shadow=0;comic=0;labelBackgroundColor=none;strokeWidth=1;fontFamily=Verdana;fontSize=10;align=center;" parent="1" vertex="1">
          <mxGeometry x="200" y="-340" width="160" height="60" as="geometry" />
        </mxCell>
        <mxCell id="OyGu7xgzBfIXpcRJ4Xiw-13" value="- actor_id: int" style="text;html=1;strokeColor=none;fillColor=none;align=left;verticalAlign=top;spacingLeft=4;spacingRight=4;whiteSpace=wrap;overflow=hidden;rotatable=0;points=[[0,0.5],[1,0.5]];portConstraint=eastwest;" parent="OyGu7xgzBfIXpcRJ4Xiw-11" vertex="1">
          <mxGeometry y="26" width="160" height="26" as="geometry" />
        </mxCell>
        <mxCell id="OyGu7xgzBfIXpcRJ4Xiw-15" value="Cast" style="swimlane;html=1;fontStyle=0;childLayout=stackLayout;horizontal=1;startSize=26;fillColor=none;horizontalStack=0;resizeParent=1;resizeLast=0;collapsible=1;marginBottom=0;swimlaneFillColor=#ffffff;rounded=0;shadow=0;comic=0;labelBackgroundColor=none;strokeWidth=1;fontFamily=Verdana;fontSize=10;align=center;" parent="1" vertex="1">
          <mxGeometry x="280" y="-520" width="160" height="90" as="geometry" />
        </mxCell>
        <mxCell id="OyGu7xgzBfIXpcRJ4Xiw-17" value="- Cast_ID: int" style="text;html=1;strokeColor=none;fillColor=none;align=left;verticalAlign=top;spacingLeft=4;spacingRight=4;whiteSpace=wrap;overflow=hidden;rotatable=0;points=[[0,0.5],[1,0.5]];portConstraint=eastwest;" parent="OyGu7xgzBfIXpcRJ4Xiw-15" vertex="1">
          <mxGeometry y="26" width="160" height="26" as="geometry" />
        </mxCell>
        <mxCell id="MXeGfviL51i1jRM-pdPd-3" value="- Description: string" style="text;html=1;strokeColor=none;fillColor=none;align=left;verticalAlign=top;spacingLeft=4;spacingRight=4;whiteSpace=wrap;overflow=hidden;rotatable=0;points=[[0,0.5],[1,0.5]];portConstraint=eastwest;" parent="OyGu7xgzBfIXpcRJ4Xiw-15" vertex="1">
          <mxGeometry y="52" width="160" height="26" as="geometry" />
        </mxCell>
        <mxCell id="OyGu7xgzBfIXpcRJ4Xiw-27" value="&lt;i&gt;User&lt;/i&gt;" style="swimlane;html=1;fontStyle=0;childLayout=stackLayout;horizontal=1;startSize=26;fillColor=none;horizontalStack=0;resizeParent=1;resizeLast=0;collapsible=1;marginBottom=0;swimlaneFillColor=#ffffff;rounded=0;shadow=0;comic=0;labelBackgroundColor=none;strokeWidth=1;fontFamily=Verdana;fontSize=10;align=center;" parent="1" vertex="1">
          <mxGeometry x="1275" y="-750" width="160" height="110" as="geometry" />
        </mxCell>
        <mxCell id="OyGu7xgzBfIXpcRJ4Xiw-29" value="- user_id: int" style="text;html=1;strokeColor=none;fillColor=none;align=left;verticalAlign=top;spacingLeft=4;spacingRight=4;whiteSpace=wrap;overflow=hidden;rotatable=0;points=[[0,0.5],[1,0.5]];portConstraint=eastwest;" parent="OyGu7xgzBfIXpcRJ4Xiw-27" vertex="1">
          <mxGeometry y="26" width="160" height="26" as="geometry" />
        </mxCell>
        <mxCell id="OyGu7xgzBfIXpcRJ4Xiw-30" value="- username: text" style="text;html=1;strokeColor=none;fillColor=none;align=left;verticalAlign=top;spacingLeft=4;spacingRight=4;whiteSpace=wrap;overflow=hidden;rotatable=0;points=[[0,0.5],[1,0.5]];portConstraint=eastwest;fontFamily=Verdana;fontSize=10;fontColor=default;fontStyle=0;labelBackgroundColor=none;" parent="OyGu7xgzBfIXpcRJ4Xiw-27" vertex="1">
          <mxGeometry y="52" width="160" height="26" as="geometry" />
        </mxCell>
        <mxCell id="OyGu7xgzBfIXpcRJ4Xiw-31" value="- email: text" style="text;html=1;strokeColor=none;fillColor=none;align=left;verticalAlign=top;spacingLeft=4;spacingRight=4;whiteSpace=wrap;overflow=hidden;rotatable=0;points=[[0,0.5],[1,0.5]];portConstraint=eastwest;fontFamily=Verdana;fontSize=10;fontColor=default;fontStyle=0;labelBackgroundColor=none;" parent="OyGu7xgzBfIXpcRJ4Xiw-27" vertex="1">
          <mxGeometry y="78" width="160" height="26" as="geometry" />
        </mxCell>
        <mxCell id="OyGu7xgzBfIXpcRJ4Xiw-32" value="Payement" style="swimlane;html=1;fontStyle=0;childLayout=stackLayout;horizontal=1;startSize=26;fillColor=none;horizontalStack=0;resizeParent=1;resizeLast=0;collapsible=1;marginBottom=0;swimlaneFillColor=#ffffff;rounded=0;shadow=0;comic=0;labelBackgroundColor=none;strokeWidth=1;fontFamily=Verdana;fontSize=10;align=center;" parent="1" vertex="1">
          <mxGeometry x="1030" y="-750" width="160" height="160" as="geometry" />
        </mxCell>
        <mxCell id="OyGu7xgzBfIXpcRJ4Xiw-33" value="- Payement_ID: int" style="text;html=1;strokeColor=none;fillColor=none;align=left;verticalAlign=top;spacingLeft=4;spacingRight=4;whiteSpace=wrap;overflow=hidden;rotatable=0;points=[[0,0.5],[1,0.5]];portConstraint=eastwest;" parent="OyGu7xgzBfIXpcRJ4Xiw-32" vertex="1">
          <mxGeometry y="26" width="160" height="26" as="geometry" />
        </mxCell>
        <mxCell id="OyGu7xgzBfIXpcRJ4Xiw-34" value="- IBAN: double" style="text;html=1;strokeColor=none;fillColor=none;align=left;verticalAlign=top;spacingLeft=4;spacingRight=4;whiteSpace=wrap;overflow=hidden;rotatable=0;points=[[0,0.5],[1,0.5]];portConstraint=eastwest;fontFamily=Verdana;fontSize=10;fontColor=default;fontStyle=0;labelBackgroundColor=none;" parent="OyGu7xgzBfIXpcRJ4Xiw-32" vertex="1">
          <mxGeometry y="52" width="160" height="26" as="geometry" />
        </mxCell>
        <mxCell id="OyGu7xgzBfIXpcRJ4Xiw-35" value="- Preice: float" style="text;html=1;strokeColor=none;fillColor=none;align=left;verticalAlign=top;spacingLeft=4;spacingRight=4;whiteSpace=wrap;overflow=hidden;rotatable=0;points=[[0,0.5],[1,0.5]];portConstraint=eastwest;fontFamily=Verdana;fontSize=10;fontColor=default;fontStyle=0;labelBackgroundColor=none;" parent="OyGu7xgzBfIXpcRJ4Xiw-32" vertex="1">
          <mxGeometry y="78" width="160" height="22" as="geometry" />
        </mxCell>
        <mxCell id="OyGu7xgzBfIXpcRJ4Xiw-40" value="- sub_type: string" style="text;html=1;strokeColor=none;fillColor=none;align=left;verticalAlign=top;spacingLeft=4;spacingRight=4;whiteSpace=wrap;overflow=hidden;rotatable=0;points=[[0,0.5],[1,0.5]];portConstraint=eastwest;fontFamily=Verdana;fontSize=10;fontColor=default;fontStyle=0;labelBackgroundColor=none;" parent="OyGu7xgzBfIXpcRJ4Xiw-32" vertex="1">
          <mxGeometry y="100" width="160" height="26" as="geometry" />
        </mxCell>
        <mxCell id="OyGu7xgzBfIXpcRJ4Xiw-36" value="Review" style="swimlane;html=1;fontStyle=0;childLayout=stackLayout;horizontal=1;startSize=26;fillColor=none;horizontalStack=0;resizeParent=1;resizeLast=0;collapsible=1;marginBottom=0;swimlaneFillColor=#ffffff;rounded=0;shadow=0;comic=0;labelBackgroundColor=none;strokeWidth=1;fontFamily=Verdana;fontSize=10;align=center;" parent="1" vertex="1">
          <mxGeometry x="680" y="-820" width="160" height="110" as="geometry" />
        </mxCell>
        <mxCell id="OyGu7xgzBfIXpcRJ4Xiw-37" value="- Review_ID: int" style="text;html=1;strokeColor=none;fillColor=none;align=left;verticalAlign=top;spacingLeft=4;spacingRight=4;whiteSpace=wrap;overflow=hidden;rotatable=0;points=[[0,0.5],[1,0.5]];portConstraint=eastwest;" parent="OyGu7xgzBfIXpcRJ4Xiw-36" vertex="1">
          <mxGeometry y="26" width="160" height="26" as="geometry" />
        </mxCell>
        <mxCell id="OyGu7xgzBfIXpcRJ4Xiw-38" value="- Comment: string" style="text;html=1;strokeColor=none;fillColor=none;align=left;verticalAlign=top;spacingLeft=4;spacingRight=4;whiteSpace=wrap;overflow=hidden;rotatable=0;points=[[0,0.5],[1,0.5]];portConstraint=eastwest;fontFamily=Verdana;fontSize=10;fontColor=default;fontStyle=0;labelBackgroundColor=none;" parent="OyGu7xgzBfIXpcRJ4Xiw-36" vertex="1">
          <mxGeometry y="52" width="160" height="26" as="geometry" />
        </mxCell>
        <mxCell id="OyGu7xgzBfIXpcRJ4Xiw-39" value="- Rating: float" style="text;html=1;strokeColor=none;fillColor=none;align=left;verticalAlign=top;spacingLeft=4;spacingRight=4;whiteSpace=wrap;overflow=hidden;rotatable=0;points=[[0,0.5],[1,0.5]];portConstraint=eastwest;fontFamily=Verdana;fontSize=10;fontColor=default;fontStyle=0;labelBackgroundColor=none;" parent="OyGu7xgzBfIXpcRJ4Xiw-36" vertex="1">
          <mxGeometry y="78" width="160" height="26" as="geometry" />
        </mxCell>
        <mxCell id="OyGu7xgzBfIXpcRJ4Xiw-57" value="" style="endArrow=diamondThin;endFill=1;endSize=24;html=1;rounded=0;entryX=0;entryY=0.5;entryDx=0;entryDy=0;exitX=1;exitY=0.5;exitDx=0;exitDy=0;" parent="1" source="u5OW4T7a8DiHMdrfiU4O-67" edge="1">
          <mxGeometry width="160" relative="1" as="geometry">
            <mxPoint x="330" y="-990" as="sourcePoint" />
            <mxPoint x="680" y="-905.0000000000001" as="targetPoint" />
          </mxGeometry>
        </mxCell>
        <mxCell id="OyGu7xgzBfIXpcRJ4Xiw-58" value="1..*" style="edgeLabel;html=1;align=center;verticalAlign=middle;resizable=0;points=[];" parent="OyGu7xgzBfIXpcRJ4Xiw-57" vertex="1" connectable="0">
          <mxGeometry x="-0.73" y="-2" relative="1" as="geometry">
            <mxPoint x="-35" y="-12" as="offset" />
          </mxGeometry>
        </mxCell>
        <mxCell id="pWf0yoMoPzwOqvPtpyno-3" value="Configuration" style="swimlane;html=1;fontStyle=0;childLayout=stackLayout;horizontal=1;startSize=26;fillColor=none;horizontalStack=0;resizeParent=1;resizeLast=0;collapsible=1;marginBottom=0;swimlaneFillColor=#ffffff;rounded=0;shadow=0;comic=0;labelBackgroundColor=none;strokeWidth=1;fontFamily=Verdana;fontSize=10;align=center;" parent="1" vertex="1">
          <mxGeometry x="70" y="-530" width="160" height="120" as="geometry">
            <mxRectangle x="310" y="-756" width="80" height="30" as="alternateBounds" />
          </mxGeometry>
        </mxCell>
        <mxCell id="pWf0yoMoPzwOqvPtpyno-4" value="&lt;div&gt;- Language: string&lt;/div&gt;" style="text;html=1;strokeColor=none;fillColor=none;align=left;verticalAlign=top;spacingLeft=4;spacingRight=4;whiteSpace=wrap;overflow=hidden;rotatable=0;points=[[0,0.5],[1,0.5]];portConstraint=eastwest;" parent="pWf0yoMoPzwOqvPtpyno-3" vertex="1">
          <mxGeometry y="26" width="160" height="26" as="geometry" />
        </mxCell>
        <mxCell id="pWf0yoMoPzwOqvPtpyno-5" value="&lt;div&gt;- Subtitles: bool&lt;/div&gt;" style="text;html=1;strokeColor=none;fillColor=none;align=left;verticalAlign=top;spacingLeft=4;spacingRight=4;whiteSpace=wrap;overflow=hidden;rotatable=0;points=[[0,0.5],[1,0.5]];portConstraint=eastwest;" parent="pWf0yoMoPzwOqvPtpyno-3" vertex="1">
          <mxGeometry y="52" width="160" height="26" as="geometry" />
        </mxCell>
        <mxCell id="pWf0yoMoPzwOqvPtpyno-6" value="&lt;div&gt;- Quality: double&lt;/div&gt;" style="text;html=1;strokeColor=none;fillColor=none;align=left;verticalAlign=top;spacingLeft=4;spacingRight=4;whiteSpace=wrap;overflow=hidden;rotatable=0;points=[[0,0.5],[1,0.5]];portConstraint=eastwest;" parent="pWf0yoMoPzwOqvPtpyno-3" vertex="1">
          <mxGeometry y="78" width="160" height="26" as="geometry" />
        </mxCell>
        <mxCell id="pWf0yoMoPzwOqvPtpyno-7" value="" style="endArrow=diamondThin;endFill=1;endSize=24;html=1;rounded=0;exitX=0.5;exitY=0;exitDx=0;exitDy=0;targetPerimeterSpacing=0;entryX=0.5;entryY=1;entryDx=0;entryDy=0;" parent="1" source="pWf0yoMoPzwOqvPtpyno-3" target="17acba5748e5396b-30" edge="1">
          <mxGeometry width="160" relative="1" as="geometry">
            <mxPoint x="140" y="-529" as="sourcePoint" />
            <mxPoint x="141" y="-600" as="targetPoint" />
          </mxGeometry>
        </mxCell>
        <mxCell id="pWf0yoMoPzwOqvPtpyno-46" value="1" style="edgeLabel;html=1;align=center;verticalAlign=middle;resizable=0;points=[];" parent="pWf0yoMoPzwOqvPtpyno-7" vertex="1" connectable="0">
          <mxGeometry x="-0.6714" relative="1" as="geometry">
            <mxPoint x="-10" y="2" as="offset" />
          </mxGeometry>
        </mxCell>
        <mxCell id="DgT4F2RhsA6bsG1ZUHsH-2" value="1..*" style="edgeLabel;html=1;align=center;verticalAlign=middle;resizable=0;points=[];fontSize=12;" vertex="1" connectable="0" parent="pWf0yoMoPzwOqvPtpyno-7">
          <mxGeometry x="0.7179" y="2" relative="1" as="geometry">
            <mxPoint x="-18" as="offset" />
          </mxGeometry>
        </mxCell>
        <mxCell id="pWf0yoMoPzwOqvPtpyno-9" value="" style="endArrow=diamondThin;endFill=1;endSize=24;html=1;rounded=0;exitX=0.5;exitY=0;exitDx=0;exitDy=0;targetPerimeterSpacing=0;" parent="1" source="pWf0yoMoPzwOqvPtpyno-3" edge="1">
          <mxGeometry width="160" relative="1" as="geometry">
            <mxPoint x="190" y="-520" as="sourcePoint" />
            <mxPoint x="300" y="-600" as="targetPoint" />
          </mxGeometry>
        </mxCell>
        <mxCell id="pWf0yoMoPzwOqvPtpyno-47" value="1" style="edgeLabel;html=1;align=center;verticalAlign=middle;resizable=0;points=[];" parent="pWf0yoMoPzwOqvPtpyno-9" vertex="1" connectable="0">
          <mxGeometry x="-0.7883" y="-1" relative="1" as="geometry">
            <mxPoint x="4" y="-3" as="offset" />
          </mxGeometry>
        </mxCell>
        <mxCell id="DgT4F2RhsA6bsG1ZUHsH-3" value="1..*" style="edgeLabel;html=1;align=center;verticalAlign=middle;resizable=0;points=[];fontSize=12;" vertex="1" connectable="0" parent="pWf0yoMoPzwOqvPtpyno-9">
          <mxGeometry x="0.8615" y="-3" relative="1" as="geometry">
            <mxPoint x="19" as="offset" />
          </mxGeometry>
        </mxCell>
        <mxCell id="pWf0yoMoPzwOqvPtpyno-10" value="Account" style="swimlane;html=1;fontStyle=0;childLayout=stackLayout;horizontal=1;startSize=26;fillColor=none;horizontalStack=0;resizeParent=1;resizeLast=0;collapsible=1;marginBottom=0;swimlaneFillColor=#ffffff;rounded=0;shadow=0;comic=0;labelBackgroundColor=none;strokeWidth=1;fontFamily=Verdana;fontSize=10;align=center;" parent="1" vertex="1">
          <mxGeometry x="1210" y="-955" width="160" height="80" as="geometry" />
        </mxCell>
        <mxCell id="pWf0yoMoPzwOqvPtpyno-11" value="- Account_ID: int" style="text;html=1;strokeColor=none;fillColor=none;align=left;verticalAlign=top;spacingLeft=4;spacingRight=4;whiteSpace=wrap;overflow=hidden;rotatable=0;points=[[0,0.5],[1,0.5]];portConstraint=eastwest;" parent="pWf0yoMoPzwOqvPtpyno-10" vertex="1">
          <mxGeometry y="26" width="160" height="26" as="geometry" />
        </mxCell>
        <mxCell id="pWf0yoMoPzwOqvPtpyno-16" value="" style="endArrow=open;html=1;endSize=12;startArrow=diamondThin;startSize=14;startFill=0;edgeStyle=orthogonalEdgeStyle;align=left;verticalAlign=bottom;rounded=0;exitX=0.5;exitY=0;exitDx=0;exitDy=0;entryX=0.5;entryY=1;entryDx=0;entryDy=0;" parent="1" source="OyGu7xgzBfIXpcRJ4Xiw-27" target="pWf0yoMoPzwOqvPtpyno-10" edge="1">
          <mxGeometry x="-1" y="3" relative="1" as="geometry">
            <mxPoint x="1160" y="-810" as="sourcePoint" />
            <mxPoint x="1320" y="-810" as="targetPoint" />
          </mxGeometry>
        </mxCell>
        <mxCell id="pWf0yoMoPzwOqvPtpyno-40" value="1..*" style="edgeLabel;html=1;align=center;verticalAlign=middle;resizable=0;points=[];" parent="pWf0yoMoPzwOqvPtpyno-16" vertex="1" connectable="0">
          <mxGeometry x="-0.918" relative="1" as="geometry">
            <mxPoint x="15" y="-7" as="offset" />
          </mxGeometry>
        </mxCell>
        <mxCell id="pWf0yoMoPzwOqvPtpyno-19" value="" style="endArrow=diamondThin;endFill=1;endSize=24;html=1;rounded=0;exitX=0.5;exitY=0;exitDx=0;exitDy=0;targetPerimeterSpacing=0;" parent="1" edge="1">
          <mxGeometry width="160" relative="1" as="geometry">
            <mxPoint x="330" y="-520" as="sourcePoint" />
            <mxPoint x="180" y="-600" as="targetPoint" />
          </mxGeometry>
        </mxCell>
        <mxCell id="pWf0yoMoPzwOqvPtpyno-48" value="1" style="edgeLabel;html=1;align=center;verticalAlign=middle;resizable=0;points=[];" parent="pWf0yoMoPzwOqvPtpyno-19" vertex="1" connectable="0">
          <mxGeometry x="-0.8584" y="-1" relative="1" as="geometry">
            <mxPoint x="-10" y="-3" as="offset" />
          </mxGeometry>
        </mxCell>
        <mxCell id="pWf0yoMoPzwOqvPtpyno-20" value="" style="endArrow=diamondThin;endFill=1;endSize=24;html=1;rounded=0;exitX=0.5;exitY=0;exitDx=0;exitDy=0;targetPerimeterSpacing=0;" parent="1" edge="1">
          <mxGeometry width="160" relative="1" as="geometry">
            <mxPoint x="360" y="-520" as="sourcePoint" />
            <mxPoint x="360" y="-600" as="targetPoint" />
          </mxGeometry>
        </mxCell>
        <mxCell id="pWf0yoMoPzwOqvPtpyno-49" value="1" style="edgeLabel;html=1;align=center;verticalAlign=middle;resizable=0;points=[];" parent="pWf0yoMoPzwOqvPtpyno-20" vertex="1" connectable="0">
          <mxGeometry x="-0.8553" y="-1" relative="1" as="geometry">
            <mxPoint x="9" y="-4" as="offset" />
          </mxGeometry>
        </mxCell>
        <mxCell id="pWf0yoMoPzwOqvPtpyno-21" value="MainUser" style="swimlane;fontStyle=0;childLayout=stackLayout;horizontal=1;startSize=26;fillColor=none;horizontalStack=0;resizeParent=1;resizeParentMax=0;resizeLast=0;collapsible=1;marginBottom=0;whiteSpace=wrap;html=1;" parent="1" vertex="1">
          <mxGeometry x="1170" y="-540" width="140" height="52" as="geometry" />
        </mxCell>
        <mxCell id="pWf0yoMoPzwOqvPtpyno-25" value="OtherUser" style="swimlane;fontStyle=0;childLayout=stackLayout;horizontal=1;startSize=26;fillColor=none;horizontalStack=0;resizeParent=1;resizeParentMax=0;resizeLast=0;collapsible=1;marginBottom=0;whiteSpace=wrap;html=1;" parent="1" vertex="1">
          <mxGeometry x="1330" y="-540" width="140" height="52" as="geometry" />
        </mxCell>
        <mxCell id="pWf0yoMoPzwOqvPtpyno-52" value="" style="endArrow=block;endFill=1;html=1;edgeStyle=orthogonalEdgeStyle;align=left;verticalAlign=top;rounded=0;entryX=1;entryY=0.5;entryDx=0;entryDy=0;" parent="1" target="OyGu7xgzBfIXpcRJ4Xiw-38" edge="1">
          <mxGeometry x="-1" relative="1" as="geometry">
            <mxPoint x="1210" y="-879" as="sourcePoint" />
            <mxPoint x="1010" y="-730" as="targetPoint" />
            <Array as="points">
              <mxPoint x="970" y="-879" />
              <mxPoint x="970" y="-755" />
            </Array>
          </mxGeometry>
        </mxCell>
        <mxCell id="pWf0yoMoPzwOqvPtpyno-53" value="1" style="edgeLabel;resizable=0;html=1;align=left;verticalAlign=bottom;" parent="pWf0yoMoPzwOqvPtpyno-52" connectable="0" vertex="1">
          <mxGeometry x="-1" relative="1" as="geometry">
            <mxPoint x="-10" y="19" as="offset" />
          </mxGeometry>
        </mxCell>
        <mxCell id="pWf0yoMoPzwOqvPtpyno-54" value="0..*" style="edgeLabel;html=1;align=center;verticalAlign=middle;resizable=0;points=[];" parent="pWf0yoMoPzwOqvPtpyno-52" vertex="1" connectable="0">
          <mxGeometry x="0.9326" y="-1" relative="1" as="geometry">
            <mxPoint x="13" y="-14" as="offset" />
          </mxGeometry>
        </mxCell>
        <mxCell id="pWf0yoMoPzwOqvPtpyno-55" value="1" style="endArrow=open;html=1;endSize=12;startArrow=diamondThin;startSize=14;startFill=1;edgeStyle=orthogonalEdgeStyle;align=left;verticalAlign=bottom;rounded=0;exitX=1;exitY=0.5;exitDx=0;exitDy=0;entryX=0;entryY=0.5;entryDx=0;entryDy=0;" parent="1" source="u5OW4T7a8DiHMdrfiU4O-86" target="OyGu7xgzBfIXpcRJ4Xiw-38" edge="1">
          <mxGeometry x="-1" y="3" relative="1" as="geometry">
            <mxPoint x="600" y="-790" as="sourcePoint" />
            <mxPoint x="760" y="-790" as="targetPoint" />
          </mxGeometry>
        </mxCell>
        <mxCell id="pWf0yoMoPzwOqvPtpyno-56" value="0..*" style="edgeLabel;html=1;align=center;verticalAlign=middle;resizable=0;points=[];" parent="pWf0yoMoPzwOqvPtpyno-55" vertex="1" connectable="0">
          <mxGeometry x="0.8316" relative="1" as="geometry">
            <mxPoint y="-13" as="offset" />
          </mxGeometry>
        </mxCell>
        <mxCell id="DgT4F2RhsA6bsG1ZUHsH-4" value="Extends" style="endArrow=block;endSize=16;endFill=0;html=1;rounded=0;fontSize=12;curved=1;exitX=0.5;exitY=0;exitDx=0;exitDy=0;entryX=0.5;entryY=1;entryDx=0;entryDy=0;" edge="1" parent="1" source="OyGu7xgzBfIXpcRJ4Xiw-11" target="OyGu7xgzBfIXpcRJ4Xiw-15">
          <mxGeometry width="160" relative="1" as="geometry">
            <mxPoint x="180" y="-380" as="sourcePoint" />
            <mxPoint x="340" y="-380" as="targetPoint" />
          </mxGeometry>
        </mxCell>
        <mxCell id="DgT4F2RhsA6bsG1ZUHsH-6" value="1..*" style="edgeLabel;html=1;align=center;verticalAlign=middle;resizable=0;points=[];fontSize=12;" vertex="1" connectable="0" parent="DgT4F2RhsA6bsG1ZUHsH-4">
          <mxGeometry x="-0.7514" y="-1" relative="1" as="geometry">
            <mxPoint x="-21" as="offset" />
          </mxGeometry>
        </mxCell>
        <mxCell id="DgT4F2RhsA6bsG1ZUHsH-5" value="Extends" style="endArrow=block;endSize=16;endFill=0;html=1;rounded=0;fontSize=12;curved=1;exitX=0.5;exitY=0;exitDx=0;exitDy=0;entryX=0.75;entryY=1;entryDx=0;entryDy=0;" edge="1" parent="1" source="OyGu7xgzBfIXpcRJ4Xiw-7" target="OyGu7xgzBfIXpcRJ4Xiw-15">
          <mxGeometry width="160" relative="1" as="geometry">
            <mxPoint x="370" y="-430" as="sourcePoint" />
            <mxPoint x="530" y="-430" as="targetPoint" />
          </mxGeometry>
        </mxCell>
        <mxCell id="DgT4F2RhsA6bsG1ZUHsH-7" value="1" style="edgeLabel;html=1;align=center;verticalAlign=middle;resizable=0;points=[];fontSize=12;" vertex="1" connectable="0" parent="DgT4F2RhsA6bsG1ZUHsH-5">
          <mxGeometry x="-0.7517" y="-3" relative="1" as="geometry">
            <mxPoint x="6" as="offset" />
          </mxGeometry>
        </mxCell>
        <mxCell id="DgT4F2RhsA6bsG1ZUHsH-12" value="" style="endArrow=block;dashed=1;endFill=0;endSize=12;html=1;rounded=0;fontSize=12;curved=1;exitX=0.5;exitY=0;exitDx=0;exitDy=0;entryX=0.25;entryY=1;entryDx=0;entryDy=0;" edge="1" parent="1" source="pWf0yoMoPzwOqvPtpyno-21" target="OyGu7xgzBfIXpcRJ4Xiw-27">
          <mxGeometry width="160" relative="1" as="geometry">
            <mxPoint x="1370" y="-680" as="sourcePoint" />
            <mxPoint x="1530" y="-680" as="targetPoint" />
          </mxGeometry>
        </mxCell>
        <mxCell id="DgT4F2RhsA6bsG1ZUHsH-13" value="1" style="edgeLabel;html=1;align=center;verticalAlign=middle;resizable=0;points=[];fontSize=12;" vertex="1" connectable="0" parent="DgT4F2RhsA6bsG1ZUHsH-12">
          <mxGeometry x="-0.7808" y="1" relative="1" as="geometry">
            <mxPoint x="-17" y="1" as="offset" />
          </mxGeometry>
        </mxCell>
        <mxCell id="DgT4F2RhsA6bsG1ZUHsH-14" value="" style="endArrow=block;dashed=1;endFill=0;endSize=12;html=1;rounded=0;fontSize=12;curved=1;exitX=0.5;exitY=0;exitDx=0;exitDy=0;entryX=0.75;entryY=1;entryDx=0;entryDy=0;" edge="1" parent="1" source="pWf0yoMoPzwOqvPtpyno-25" target="OyGu7xgzBfIXpcRJ4Xiw-27">
          <mxGeometry width="160" relative="1" as="geometry">
            <mxPoint x="1260" y="-570" as="sourcePoint" />
            <mxPoint x="1420" y="-570" as="targetPoint" />
          </mxGeometry>
        </mxCell>
        <mxCell id="DgT4F2RhsA6bsG1ZUHsH-15" value="0..*" style="edgeLabel;html=1;align=center;verticalAlign=middle;resizable=0;points=[];fontSize=12;" vertex="1" connectable="0" parent="DgT4F2RhsA6bsG1ZUHsH-14">
          <mxGeometry x="-0.8083" y="-1" relative="1" as="geometry">
            <mxPoint x="9" y="-1" as="offset" />
          </mxGeometry>
        </mxCell>
        <mxCell id="DgT4F2RhsA6bsG1ZUHsH-18" value="" style="endArrow=open;html=1;endSize=12;startArrow=diamondThin;startSize=14;startFill=0;edgeStyle=orthogonalEdgeStyle;align=left;verticalAlign=bottom;rounded=0;exitX=0.75;exitY=0;exitDx=0;exitDy=0;entryX=0.25;entryY=1;entryDx=0;entryDy=0;" edge="1" parent="1" source="OyGu7xgzBfIXpcRJ4Xiw-32" target="pWf0yoMoPzwOqvPtpyno-10">
          <mxGeometry x="-1" y="3" relative="1" as="geometry">
            <mxPoint x="1365" y="-740" as="sourcePoint" />
            <mxPoint x="1300" y="-865" as="targetPoint" />
          </mxGeometry>
        </mxCell>
        <mxCell id="DgT4F2RhsA6bsG1ZUHsH-19" value="1..*" style="edgeLabel;html=1;align=center;verticalAlign=middle;resizable=0;points=[];" vertex="1" connectable="0" parent="DgT4F2RhsA6bsG1ZUHsH-18">
          <mxGeometry x="-0.918" relative="1" as="geometry">
            <mxPoint x="15" y="-7" as="offset" />
          </mxGeometry>
        </mxCell>
        <mxCell id="DgT4F2RhsA6bsG1ZUHsH-20" value="" style="endArrow=open;html=1;endSize=12;startArrow=diamondThin;startSize=14;startFill=0;edgeStyle=orthogonalEdgeStyle;align=left;verticalAlign=bottom;rounded=0;fontSize=12;curved=1;entryX=1;entryY=0.5;entryDx=0;entryDy=0;exitX=0;exitY=0.5;exitDx=0;exitDy=0;" edge="1" parent="1" source="pWf0yoMoPzwOqvPtpyno-11" target="OyGu7xgzBfIXpcRJ4Xiw-2">
          <mxGeometry x="-0.8961" y="-14" relative="1" as="geometry">
            <mxPoint x="1050" y="-920" as="sourcePoint" />
            <mxPoint x="1210" y="-920" as="targetPoint" />
            <mxPoint as="offset" />
          </mxGeometry>
        </mxCell>
        <mxCell id="DgT4F2RhsA6bsG1ZUHsH-22" value="1" style="edgeLabel;html=1;align=center;verticalAlign=middle;resizable=0;points=[];fontSize=12;" vertex="1" connectable="0" parent="DgT4F2RhsA6bsG1ZUHsH-20">
          <mxGeometry x="-0.9197" y="-1" relative="1" as="geometry">
            <mxPoint x="-5" y="12" as="offset" />
          </mxGeometry>
        </mxCell>
      </root>
    </mxGraphModel>
  </diagram>
</mxfile>
